# Obj file Generated by Strata CX
#  Vertices: 105
#     Faces: 59
#       UVs: 145
#   Normals: 228
# Materials: 0

v -163.971008 -5.135069 -205.145844
v -37.874294 -5.553183 -208.884842
v -42.211143 -0.294839 -174.610245
v -54.565609 14.684691 -145.545212
v -73.056786 37.104858 -126.123344
v -94.869461 63.552277 -119.301552
v -116.682762 90.000450 -126.118423
v -135.175705 112.422768 -145.536102
v -147.532837 127.405518 -174.598343
v -151.872818 132.667664 -208.880554
v -147.534927 127.408051 -243.163422
v -135.179565 112.427437 -272.227539
v -116.687798 90.006546 -291.647980
v -94.874916 63.558884 -298.468140
v -73.061829 37.110966 -291.649628
v -54.569477 14.689378 -272.230560
v -42.213226 -0.292317 -243.167374
v -32.733879 -1.313592 -208.884842
v -37.070728 3.944752 -174.610245
v -49.425190 18.924282 -145.545212
v -67.916367 41.344452 -126.123344
v -89.729042 67.791870 -119.301552
v -111.542343 94.240044 -126.118423
v -130.035294 116.662354 -145.536102
v -142.392410 131.645111 -174.598343
v -146.732407 136.907257 -208.880554
v -142.394501 131.647644 -243.163422
v -130.039154 116.667023 -272.227539
v -111.547379 94.246140 -291.647980
v -89.734497 67.798470 -298.468140
v -67.921410 41.350559 -291.649628
v -49.429062 18.928968 -272.230560
v -37.072811 3.947274 -243.167374
v -34.427567 42.875965 -188.059418
v -56.271690 69.361511 -153.722198
v -87.166542 106.820877 -153.718704
v -100.262787 122.699806 -167.469833
v -109.013802 133.310226 -188.050995
v -109.015282 133.312012 -236.607101
v -87.170105 106.825195 -270.942688
v -56.275265 69.365845 -270.943848
v -34.429043 42.877754 -236.609894
v -163.497894 -5.708699 -208.884842
v -165.318741 -3.500959 -201.975159
v -167.335938 -1.055155 -199.856430
v -169.715469 1.829980 -199.112244
v -172.095078 4.715198 -199.855896
v -174.112457 7.161236 -201.974167
v -175.460495 8.795696 -205.144547
v -175.933945 9.369741 -208.884369
v -175.460724 8.795973 -212.624268
v -174.112885 7.161746 -215.794861
v -172.095627 4.715863 -217.913437
v -169.716064 1.830701 -218.657440
v -167.336487 -1.054489 -217.913605
v -165.319168 -3.500448 -215.795197
v -163.971237 -5.134793 -212.624710

vt 0.531250 1.000000
vt 0.500000 0.000000
vt 0.562500 0.000000
vt 0.593750 1.000000
vt 0.625000 0.000000
vt 0.656250 1.000000
vt 0.687500 0.000000
vt 0.718750 1.000000
vt 0.750000 0.000000
vt 0.781250 1.000000
vt 0.812500 0.000000
vt 0.843750 1.000000
vt 0.875000 0.000000
vt 0.906250 1.000000
vt 0.937500 0.000000
vt 0.968750 1.000000
vt 1.000000 0.000000
vt 0.031250 1.000000
vt 0.000000 0.000000
vt 0.062500 0.000000
vt 0.093750 1.000000
vt 0.125000 0.000000
vt 0.156250 1.000000
vt 0.187500 0.000000
vt 0.218750 1.000000
vt 0.250000 0.000000
vt 0.281250 1.000000
vt 0.312500 0.000000
vt 0.343750 1.000000
vt 0.375000 0.000000
vt 0.406250 1.000000
vt 0.437500 0.000000
vt 0.468750 1.000000
vt 1.000000 0.500000
vt 0.961939 0.691344
vt 0.853549 0.853558
vt 0.691333 0.961943
vt 0.499988 1.000000
vt 0.308645 0.961934
vt 0.146434 0.853541
vt 0.038052 0.691322
vt 0.000000 0.499976
vt 0.038071 0.308633
vt 0.146468 0.146425
vt 0.308689 0.038048
vt 0.500036 0.000000
vt 0.691378 0.038075
vt 0.853583 0.146476
vt 0.961957 0.308700
vt 0.546875 0.500000
vt 0.578125 0.500000
vt 0.515625 0.500000
vt 0.484375 0.500000
vt 0.609375 0.500000
vt 0.640625 0.500000
vt 0.671875 0.500000
vt 0.703125 0.500000
vt 0.734375 0.500000
vt 0.765625 0.500000
vt 0.796875 0.500000
vt 0.828125 0.500000
vt 0.859375 0.500000
vt 0.890625 0.500000
vt 0.921875 0.500000
vt 0.953125 0.500000
vt 0.984375 0.500000
vt 0.015625 0.500000
vt 0.046875 0.500000
vt 0.078125 0.500000
vt 0.109375 0.500000
vt 0.140625 0.500000
vt 0.171875 0.500000
vt 0.203125 0.500000
vt 0.234375 0.500000
vt 0.265625 0.500000
vt 0.296875 0.500000
vt 0.328125 0.500000
vt 0.359375 0.500000
vt 0.390625 0.500000
vt 0.421875 0.500000
vt 0.453125 0.500000
vt 0.554688 0.250000
vt 0.570313 0.250000
vt 0.539063 0.250000
vt 0.601563 0.250000
vt 0.507813 0.250000
vt 0.492188 0.250000
vt 0.539063 0.250000
vt 0.476563 0.250000
vt 0.605469 0.375000
vt 0.632813 0.250000
vt 0.613281 0.125000
vt 0.664063 0.250000
vt 0.667969 0.375000
vt 0.695313 0.250000
vt 0.675781 0.125000
vt 0.726563 0.250000
vt 0.730469 0.375000
vt 0.757813 0.250000
vt 0.789063 0.250000
vt 0.738281 0.125000
vt 0.792969 0.375000
vt 0.820313 0.250000
vt 0.851563 0.250000
vt 0.800781 0.125000
vt 0.882813 0.250000
vt 0.855469 0.375000
vt 0.914063 0.250000
vt 0.863281 0.125000
vt 0.945313 0.250000
vt 0.917969 0.375000
vt 0.976563 0.250000
vt 0.925781 0.125000
vt 0.007813 0.250000
vt 0.980469 0.375000
vt 0.039063 0.250000
vt 0.988281 0.125000
vt 0.070313 0.250000
vt 0.042969 0.375000
vt 0.101563 0.250000
vt 0.050781 0.125000
vt 0.132813 0.250000
vt 0.105469 0.375000
vt 0.164063 0.250000
vt 0.113281 0.125000
vt 0.195313 0.250000
vt 0.167969 0.375000
vt 0.226563 0.250000
vt 0.175781 0.125000
vt 0.257813 0.250000
vt 0.230469 0.375000
vt 0.289063 0.250000
vt 0.238281 0.125000
vt 0.320313 0.250000
vt 0.292969 0.375000
vt 0.351563 0.250000
vt 0.300781 0.125000
vt 0.382813 0.250000
vt 0.355469 0.375000
vt 0.414063 0.250000
vt 0.363281 0.125000
vt 0.445313 0.250000
vt 0.417969 0.375000
vt 0.476563 0.250000
vt 0.425781 0.125000

vn 0.001224 -0.988411 0.151795
vn -0.072690 -0.898786 0.432318
vn -0.771465 -0.636271 0.000000
vn 0.001224 -0.988411 0.151795
vn 0.624051 -0.756649 0.195046
vn 0.624045 -0.756642 -0.195093
vn 0.001224 -0.988406 -0.151832
vn 0.001224 -0.988411 0.151795
vn -0.072690 -0.898786 0.432318
vn 0.624051 -0.756649 0.195046
vn 0.529071 -0.641487 0.555498
vn -0.072690 -0.898786 0.432318
vn -0.209301 -0.733149 0.647060
vn 0.529071 -0.641487 0.555498
vn 0.353536 -0.428655 0.831425
vn -0.209301 -0.733149 0.647060
vn -0.387800 -0.516722 0.763288
vn 0.353536 -0.428655 0.831425
vn 0.124177 -0.150562 0.980771
vn -0.387800 -0.516722 0.763288
vn -0.581013 -0.282456 0.763310
vn 0.124177 -0.150562 0.980771
vn -0.124087 0.150453 0.980799
vn -0.581013 -0.282456 0.763310
vn -0.759523 -0.066016 0.647122
vn -0.124087 0.150453 0.980799
vn -0.353460 0.428563 0.831505
vn -0.759523 -0.066016 0.647122
vn -0.896154 0.099646 0.432411
vn -0.353460 0.428563 0.831505
vn -0.529020 0.641426 0.555617
vn -0.896154 0.099646 0.432411
vn -0.970102 0.189307 0.151869
vn -0.529020 0.641426 0.555617
vn -0.624039 0.756634 0.195140
vn -0.970102 0.189307 0.151869
vn -0.970112 0.189318 -0.151795
vn -0.624039 0.756634 0.195140
vn -0.624051 0.756649 -0.195046
vn -0.970112 0.189318 -0.151795
vn -0.896180 0.099677 -0.432350
vn -0.624051 0.756649 -0.195046
vn -0.529054 0.641467 -0.555538
vn -0.896180 0.099677 -0.432350
vn -0.759563 -0.065968 -0.647080
vn -0.529054 0.641467 -0.555538
vn -0.353511 0.428624 -0.831451
vn -0.759563 -0.065968 -0.647080
vn -0.581060 -0.282399 -0.763296
vn -0.353511 0.428624 -0.831451
vn -0.124147 0.150526 -0.980780
vn -0.581060 -0.282399 -0.763296
vn -0.387847 -0.516666 -0.763303
vn -0.124147 0.150526 -0.980780
vn 0.124117 -0.150490 -0.980789
vn -0.387847 -0.516666 -0.763303
vn -0.209340 -0.733101 -0.647101
vn 0.124117 -0.150490 -0.980789
vn 0.353485 -0.428594 -0.831478
vn -0.209340 -0.733101 -0.647101
vn -0.072717 -0.898754 -0.432381
vn 0.353485 -0.428594 -0.831478
vn 0.529037 -0.641446 -0.555578
vn 0.001224 -0.988406 -0.151832
vn -0.072717 -0.898754 -0.432381
vn 0.529037 -0.641446 -0.555578
vn 0.624045 -0.756642 -0.195093
vn 0.624051 -0.756649 0.195046
vn 0.991392 -0.022766 0.128936
vn 0.624045 -0.756642 -0.195093
vn 0.990199 -0.044972 -0.132225
vn 0.999266 0.038313 -0.000029
vn 0.624051 -0.756649 0.195046
vn 0.991392 -0.022766 0.128936
vn 0.529071 -0.641487 0.555498
vn 0.929680 0.062304 0.363062
vn 0.353536 -0.428655 0.831425
vn 0.814165 0.198952 0.545485
vn 0.529071 -0.641487 0.555498
vn 0.929680 0.062304 0.363062
vn 0.887974 0.188541 0.419469
vn 0.124177 -0.150562 0.980771
vn 0.656861 0.372679 0.655473
vn 0.353536 -0.428655 0.831425
vn 0.814165 0.198952 0.545485
vn -0.124087 0.150453 0.980799
vn 0.473641 0.564812 0.675760
vn 0.124177 -0.150562 0.980771
vn 0.656861 0.372679 0.655473
vn 0.608648 0.501929 0.614504
vn -0.353460 0.428563 0.831505
vn 0.286006 0.751134 0.594977
vn -0.124087 0.150453 0.980799
vn 0.473641 0.564812 0.675760
vn -0.529020 0.641426 0.555617
vn 0.121632 0.902352 0.413481
vn -0.353460 0.428563 0.831505
vn 0.286006 0.751134 0.594977
vn -0.624039 0.756634 0.195140
vn 0.011266 0.988574 0.150315
vn -0.529020 0.641426 0.555617
vn 0.121632 0.902352 0.413481
vn -0.624051 0.756649 -0.195046
vn -0.019017 0.987893 -0.153967
vn -0.624039 0.756634 0.195140
vn 0.011266 0.988574 0.150315
vn 0.094916 0.995485 0.000034
vn -0.529054 0.641467 -0.555538
vn 0.042455 0.895306 -0.443423
vn -0.624051 0.756649 -0.195046
vn -0.019017 0.987893 -0.153967
vn -0.353511 0.428624 -0.831451
vn 0.186637 0.726635 -0.661187
vn -0.529054 0.641467 -0.555538
vn 0.042455 0.895306 -0.443423
vn 0.206782 0.833898 -0.511717
vn -0.124147 0.150526 -0.980780
vn 0.384869 0.514946 -0.765968
vn -0.353511 0.428624 -0.831451
vn 0.186637 0.726635 -0.661187
vn 0.124117 -0.150490 -0.980789
vn 0.597367 0.301048 -0.743318
vn -0.124147 0.150526 -0.980780
vn 0.384869 0.514946 -0.765968
vn 0.552627 0.455804 -0.697743
vn 0.353485 -0.428594 -0.831478
vn 0.785343 0.122084 -0.606904
vn 0.124117 -0.150490 -0.980789
vn 0.597367 0.301048 -0.743318
vn 0.529037 -0.641446 -0.555578
vn 0.920858 0.003137 -0.389887
vn 0.353485 -0.428594 -0.831478
vn 0.785343 0.122084 -0.606904
vn 0.879098 0.131018 -0.458280
vn 0.624045 -0.756642 -0.195093
vn 0.990199 -0.044972 -0.132225
vn 0.529037 -0.641446 -0.555578
vn 0.920858 0.003137 -0.389887
vn 0.771465 0.636271 -0.000000
vn 0.887974 0.188541 0.419469
vn 0.991392 -0.022766 0.128936
vn 0.929680 0.062304 0.363062
vn 0.999266 0.038313 -0.000029
vn 0.771465 0.636271 -0.000000
vn 0.887974 0.188541 0.419469
vn 0.814165 0.198952 0.545485
vn 0.608648 0.501929 0.614504
vn 0.656861 0.372679 0.655473
vn 0.771465 0.636271 -0.000000
vn 0.286006 0.751134 0.594977
vn 0.608648 0.501929 0.614504
vn 0.473641 0.564812 0.675760
vn 0.771465 0.636271 -0.000000
vn 0.121632 0.902352 0.413481
vn 0.286006 0.751134 0.594977
vn 0.771465 0.636271 -0.000000
vn 0.121632 0.902352 0.413481
vn 0.094916 0.995485 0.000034
vn 0.011266 0.988574 0.150315
vn 0.771465 0.636271 -0.000000
vn 0.206782 0.833898 -0.511717
vn 0.094916 0.995485 0.000034
vn -0.019017 0.987893 -0.153967
vn 0.042455 0.895306 -0.443423
vn 0.771465 0.636271 -0.000000
vn 0.552627 0.455804 -0.697743
vn 0.206782 0.833898 -0.511717
vn 0.186637 0.726635 -0.661187
vn 0.384869 0.514946 -0.765968
vn 0.771465 0.636271 -0.000000
vn 0.879098 0.131018 -0.458280
vn 0.552627 0.455804 -0.697743
vn 0.597367 0.301048 -0.743318
vn 0.785343 0.122084 -0.606904
vn 0.771465 0.636271 -0.000000
vn 0.879098 0.131018 -0.458280
vn 0.920858 0.003137 -0.389887
vn 0.990199 -0.044972 -0.132225
vn 0.999266 0.038313 -0.000029
vn -0.771465 -0.636271 0.000000
vn 0.001224 -0.988411 0.151795
vn -0.771465 -0.636271 0.000000
vn 0.001224 -0.988406 -0.151832
vn -0.072690 -0.898786 0.432318
vn -0.209301 -0.733149 0.647060
vn -0.771465 -0.636271 0.000000
vn -0.771465 -0.636271 0.000000
vn -0.209301 -0.733149 0.647060
vn -0.387800 -0.516722 0.763288
vn -0.771465 -0.636271 0.000000
vn -0.387800 -0.516722 0.763288
vn -0.581013 -0.282456 0.763310
vn -0.771465 -0.636271 0.000000
vn -0.581013 -0.282456 0.763310
vn -0.759523 -0.066016 0.647122
vn -0.771465 -0.636271 0.000000
vn -0.759523 -0.066016 0.647122
vn -0.896154 0.099646 0.432411
vn -0.771465 -0.636271 0.000000
vn -0.896154 0.099646 0.432411
vn -0.970102 0.189307 0.151869
vn -0.771465 -0.636271 0.000000
vn -0.970102 0.189307 0.151869
vn -0.970112 0.189318 -0.151795
vn -0.771465 -0.636271 0.000000
vn -0.970112 0.189318 -0.151795
vn -0.896180 0.099677 -0.432350
vn -0.771465 -0.636271 0.000000
vn -0.896180 0.099677 -0.432350
vn -0.759563 -0.065968 -0.647080
vn -0.771465 -0.636271 0.000000
vn -0.759563 -0.065968 -0.647080
vn -0.581060 -0.282399 -0.763296
vn -0.771465 -0.636271 0.000000
vn -0.581060 -0.282399 -0.763296
vn -0.387847 -0.516666 -0.763303
vn -0.771465 -0.636271 0.000000
vn -0.771465 -0.636271 0.000000
vn -0.771465 -0.636271 0.000000
vn -0.387847 -0.516666 -0.763303
vn -0.209340 -0.733101 -0.647101
vn -0.209340 -0.733101 -0.647101
vn -0.072717 -0.898754 -0.432381
vn -0.771465 -0.636271 0.000000
vn -0.771465 -0.636271 0.000000
vn -0.771465 -0.636271 0.000000
vn 0.001224 -0.988406 -0.151832
vn -0.072717 -0.898754 -0.432381

f 1//3 44//186 43//180
f 44//187 45//190 46//193 47//196 48//199 49//202 50//205 51//208 52//211 53//214 54//217 55//218 57//225 43//182
f 55//219 56//224 57//226
f 43/86/181 2/2/4 3/50/8 1/82/1
f 1/83/2 3/3/9 4/54/12 44/90/184
f 44/91/185 4/5/13 5/56/16 45/94/188
f 45/95/189 5/7/17 6/58/20 46/98/191
f 42/35/175 41/37/170 40/39/165 39/41/160 38/43/156 37/44/153 36/45/149 35/47/144 34/49/139
f 18//68 19//73 3//10 2//5
f 19//75 20//79 4//14 3//11
f 20//77 21//84 5//18 4//15
f 21//82 22//88 6//22 5//19
f 22//86 23//93 7//26 6//23
f 23//91 24//97 8//30 7//27
f 24//95 25//101 9//34 8//31
f 25//99 26//105 10//38 9//35
f 26//103 27//110 11//42 10//39
f 27//108 28//114 12//46 11//43
f 28//112 29//119 13//50 12//47
f 29//117 30//123 14//54 13//51
f 30//121 31//128 15//58 14//55
f 31//126 32//132 16//62 15//59
f 32//130 33//137 17//66 16//63
f 33//135 18//70 2//6 17//67
f 19//74 18//69 34//141
f 18//71 33//136 42//178
f 33//138 32//131 42//177
f 32//133 31//127 41//174
f 31//129 30//122 41//173
f 30//124 29//118 40//169
f 29//120 28//113 40//168
f 28//115 27//109 39//164
f 27//111 26//104 39//163
f 26//106 25//100 38//159
f 25//102 24//96 37//154 38//157
f 24//98 23//92 36//150 37//155
f 23//94 22//87 36//152
f 22//89 21//83 35//148
f 21//85 20//78 35//146
f 20//80 19//76 34//142
f 34//143 18//72 42//179
f 35//145 20//81 34//140
f 36//151 22//90 35//147
f 39//162 26//107 38//158
f 40//167 28//116 39//161
f 41//172 30//125 40//166
f 42//176 32//134 41//171
f 46/99/192 6/9/21 7/60/24 47/102/194
f 47/103/195 7/11/25 8/62/28 48/107/197
f 48/106/198 8/13/29 9/64/32 49/111/200
f 49/110/201 9/15/33 10/66/36 50/115/203
f 50/114/204 10/19/37 11/68/40 51/119/206
f 51/118/207 11/20/41 12/70/44 52/123/209
f 52/122/210 12/22/45 13/72/48 53/127/212
f 53/126/213 13/24/49 14/74/52 54/131/215
f 54/130/216 14/26/53 15/76/56 55/135/220
f 55/134/221 15/28/57 16/78/60 56/139/222
f 57/142/227 17/32/64 2/53/7 43/87/183
f 56/138/223 16/30/61 17/80/65 57/143/228

# End of File
